<svg width="32" height="32" viewBox="0 0 32 32" fill="none" xmlns="http://www.w3.org/2000/svg">
<path d="M15.9098 0C11.682 0.0123329 7.63185 1.70207 4.64885 4.69815C1.66585 7.69424 -0.00614944 11.7517 1.69962e-05 15.9796C0.00618343 20.2074 1.69002 24.26 4.68174 27.2474C7.67347 30.2347 11.7285 31.9127 15.9564 31.9127C20.1842 31.9127 24.2393 30.2347 27.231 27.2474C30.2227 24.26 31.9065 20.2074 31.9127 15.9796C31.9189 11.7517 30.2469 7.69424 27.2639 4.69815C24.2809 1.70207 20.2308 0.0123329 16.0029 0L15.9098 0Z" fill="#31313E"/>
<path d="M15.5 25C14.375 25 13.5 24.125 13.5 23C13.5 21.875 14.3187 21 15.5 21C16.5687 21 17.5 21.875 17.5 23C17.5 24.125 16.5687 25 15.5 25ZM19.8188 16.125L17 17.875V18C17 18.8125 16.3125 19.5 15.5 19.5C14.6875 19.5 14 18.8125 14 18V17C14 16.5 14.25 16 14.75 15.6875L18.3125 13.5625C18.75 13.3125 19 12.875 19 12.375C19 11.625 18.3188 11 17.5688 11H14.375C13.5687 11 13 11.625 13 12.375C13 13.1875 12.3125 13.875 11.5 13.875C10.6875 13.875 10 13.1875 10 12.375C10 9.9375 11.9375 8 14.3188 8H17.5125C20.0625 8 22 9.9375 22 12.375C22 13.875 21.1875 15.3125 19.8188 16.125Z" fill="white"/>
</svg>
