<svg width="24" height="24" viewBox="0 0 24 24" fill="none" xmlns="http://www.w3.org/2000/svg">
<path fill-rule="evenodd" clip-rule="evenodd" d="M12.0004 0.799316C8.9586 0.799316 8.57686 0.812617 7.38219 0.866984C6.18984 0.921584 5.37596 1.11035 4.66382 1.38732C3.92718 1.67339 3.30231 2.05606 2.67977 2.67884C2.05676 3.30138 1.67409 3.92625 1.38709 4.66266C1.10942 5.37503 0.920418 6.18914 0.86675 7.38102C0.813317 8.5757 0.799316 8.95767 0.799316 11.9994C0.799316 15.0412 0.81285 15.4218 0.866984 16.6164C0.921818 17.8088 1.11059 18.6227 1.38732 19.3348C1.67363 20.0714 2.0563 20.6963 2.67907 21.3189C3.30138 21.9419 3.92625 22.3255 4.66242 22.6115C5.37503 22.8885 6.18914 23.0773 7.38125 23.1319C8.57593 23.1862 8.95744 23.1995 11.999 23.1995C15.041 23.1995 15.4215 23.1862 16.6162 23.1319C17.8086 23.0773 18.6234 22.8885 19.336 22.6115C20.0724 22.3255 20.6963 21.9419 21.3186 21.3189C21.9416 20.6963 22.3243 20.0714 22.6113 19.335C22.8866 18.6227 23.0757 17.8086 23.1317 16.6167C23.1853 15.422 23.1993 15.0412 23.1993 11.9994C23.1993 8.95767 23.1853 8.57593 23.1317 7.38125C23.0757 6.18891 22.8866 5.37503 22.6113 4.66289C22.3243 3.92625 21.9416 3.30138 21.3186 2.67884C20.6956 2.05583 20.0726 1.67316 19.3353 1.38732C18.6213 1.11035 17.8069 0.921584 16.6146 0.866984C15.4199 0.812617 15.0396 0.799316 11.9969 0.799316H12.0004ZM10.9956 2.81764C11.2938 2.81717 11.6265 2.81764 12.0003 2.81764C14.9907 2.81764 15.3452 2.82837 16.5261 2.88204C17.6181 2.93197 18.2108 3.11444 18.6056 3.26774C19.1283 3.47075 19.5009 3.71342 19.8927 4.10542C20.2847 4.49742 20.5273 4.87076 20.7308 5.39343C20.8841 5.78777 21.0668 6.38044 21.1165 7.47245C21.1702 8.65313 21.1818 9.0078 21.1818 11.9968C21.1818 14.9859 21.1702 15.3405 21.1165 16.5212C21.0666 17.6132 20.8841 18.2059 20.7308 18.6002C20.5278 19.1229 20.2847 19.4951 19.8927 19.8869C19.5007 20.2789 19.1285 20.5215 18.6056 20.7245C18.2112 20.8785 17.6181 21.0605 16.5261 21.1105C15.3454 21.1641 14.9907 21.1758 12.0003 21.1758C9.00965 21.1758 8.65522 21.1641 7.47454 21.1105C6.38253 21.0601 5.78985 20.8776 5.39482 20.7243C4.87214 20.5213 4.49881 20.2786 4.1068 19.8866C3.7148 19.4946 3.47213 19.1222 3.26866 18.5993C3.11536 18.205 2.93266 17.6123 2.88296 16.5203C2.82929 15.3396 2.81856 14.9849 2.81856 11.994C2.81856 9.00314 2.82929 8.65033 2.88296 7.46965C2.93289 6.37764 3.11536 5.78497 3.26866 5.39017C3.47166 4.86749 3.7148 4.49416 4.1068 4.10215C4.49881 3.71015 4.87214 3.46748 5.39482 3.26401C5.78962 3.11001 6.38253 2.92801 7.47454 2.87784C8.50775 2.83117 8.90815 2.81717 10.9956 2.81484V2.81764ZM17.9789 4.67733C17.2368 4.67733 16.6348 5.27864 16.6348 6.02088C16.6348 6.76289 17.2368 7.36489 17.9789 7.36489C18.7209 7.36489 19.3229 6.76289 19.3229 6.02088C19.3229 5.27887 18.7209 4.67733 17.9789 4.67733ZM12.0004 6.24768C8.82399 6.24768 6.24866 8.823 6.24866 11.9994C6.24866 15.1758 8.82399 17.75 12.0004 17.75C15.1768 17.75 17.7512 15.1758 17.7512 11.9994C17.7512 8.823 15.1768 6.24768 12.0004 6.24768ZM12.0003 8.26603C14.0621 8.26603 15.7337 9.93741 15.7337 11.9994C15.7337 14.0612 14.0621 15.7328 12.0003 15.7328C9.93835 15.7328 8.26697 14.0612 8.26697 11.9994C8.26697 9.93741 9.93835 8.26603 12.0003 8.26603Z" fill="white"/>
</svg>
