<svg width="13" height="17" viewBox="0 0 13 17" fill="none" xmlns="http://www.w3.org/2000/svg">
<path fill-rule="evenodd" clip-rule="evenodd" d="M3.9271 4.34376C3.9271 2.92278 5.07904 1.77084 6.50002 1.77084C7.921 1.77084 9.07294 2.92278 9.07294 4.34376V5.33334H3.9271V4.34376ZM2.7396 5.38892V4.34376C2.7396 2.26694 4.4232 0.583344 6.50002 0.583344C8.57684 0.583344 10.2604 2.26694 10.2604 4.34376V5.38892C11.7255 5.66684 12.8334 6.95405 12.8334 8.50001V13.25C12.8334 14.9989 11.4156 16.4167 9.66669 16.4167H3.33335C1.58445 16.4167 0.166687 14.9989 0.166687 13.25V8.50001C0.166687 6.95405 1.27451 5.66684 2.7396 5.38892ZM8.08335 10.875C8.08335 11.7495 7.37447 12.4583 6.50002 12.4583C5.62557 12.4583 4.91669 11.7495 4.91669 10.875C4.91669 10.0006 5.62557 9.29168 6.50002 9.29168C7.37447 9.29168 8.08335 10.0006 8.08335 10.875Z" fill="black"/>
</svg>
