<svg width="21" height="16" viewBox="0 0 21 16" fill="none" xmlns="http://www.w3.org/2000/svg">
<path d="M19.5822 0.104141L0.980353 6.51992C-0.289252 6.97543 -0.281722 7.60865 0.748939 7.891L5.38829 9.18586L7.16342 14.0525C7.37922 14.5852 7.27284 14.7964 7.89835 14.7964C8.38108 14.7964 8.59522 14.5996 8.86408 14.3648C9.03505 14.2152 10.0502 13.3326 11.1836 12.3472L16.0094 15.5355C16.8974 15.9736 17.5386 15.7467 17.7597 14.7981L20.9275 1.44946C21.2518 0.286738 20.4318 -0.240668 19.5822 0.104141ZM6.11639 8.88837L16.5735 2.98881C17.0955 2.70571 17.5742 2.85792 17.1812 3.16986L8.22717 10.3941L7.87853 13.7192L6.11639 8.88837Z" fill="white"/>
</svg>
