<svg width="21" height="18" viewBox="0 0 21 18" fill="none" xmlns="http://www.w3.org/2000/svg">
<path fill-rule="evenodd" clip-rule="evenodd" d="M10.3711 5.06941L10.4151 5.79605L9.68067 5.70708C7.00726 5.366 4.6717 4.20929 2.68867 2.26662L1.71919 1.3027L1.46948 2.01452C0.940672 3.60128 1.27852 5.27702 2.3802 6.40406C2.96776 7.0269 2.83556 7.11588 1.82202 6.74514C1.46948 6.62651 1.16101 6.53753 1.13163 6.58202C1.02881 6.68582 1.38134 8.03531 1.66044 8.56918C2.04235 9.31065 2.82087 10.0373 3.67284 10.4674L4.3926 10.8084L3.54064 10.8233C2.71805 10.8233 2.68867 10.8381 2.77681 11.1495C3.07059 12.1134 4.23102 13.1367 5.52366 13.5816L6.43438 13.893L5.64117 14.3675C4.46605 15.0497 3.08528 15.4353 1.7045 15.4649C1.0435 15.4797 0.5 15.5391 0.5 15.5835C0.5 15.7318 2.29207 16.5623 3.33499 16.8885C6.46376 17.8525 10.1801 17.4372 12.971 15.7912C14.954 14.6196 16.9371 12.2914 17.8625 10.0373C18.3619 8.83611 18.8613 6.64134 18.8613 5.58844C18.8613 4.90628 18.9054 4.8173 19.728 4.00168C20.2127 3.52713 20.6681 3.0081 20.7562 2.8598C20.9031 2.57804 20.8884 2.57804 20.1393 2.83014C18.8907 3.27503 18.7144 3.21571 19.3314 2.54838C19.7867 2.07384 20.3302 1.21372 20.3302 0.961623C20.3302 0.917134 20.1099 0.991282 19.8602 1.12475C19.5958 1.27304 19.0082 1.49549 18.5676 1.62895L17.7743 1.88105L17.0546 1.39168C16.658 1.12475 16.0998 0.828157 15.806 0.73918C15.0569 0.531566 13.9111 0.561225 13.2354 0.798498C11.3993 1.46583 10.2389 3.18605 10.3711 5.06941Z" fill="white"/>
</svg>
