<svg width="24" height="17" viewBox="0 0 24 17" fill="none" xmlns="http://www.w3.org/2000/svg">
<path fill-rule="evenodd" clip-rule="evenodd" d="M20.7507 0.779979C21.7146 1.04446 22.4736 1.82375 22.7312 2.81338C23.1993 4.60698 23.1993 8.34932 23.1993 8.34932C23.1993 8.34932 23.1993 12.0915 22.7312 13.8853C22.4736 14.8749 21.7146 15.6542 20.7507 15.9188C19.004 16.3993 11.9993 16.3993 11.9993 16.3993C11.9993 16.3993 4.99461 16.3993 3.24779 15.9188C2.28395 15.6542 1.5249 14.8749 1.2673 13.8853C0.799316 12.0915 0.799316 8.34932 0.799316 8.34932C0.799316 8.34932 0.799316 4.60698 1.2673 2.81338C1.5249 1.82375 2.28395 1.04446 3.24779 0.779979C4.99461 0.299316 11.9993 0.299316 11.9993 0.299316C11.9993 0.299316 19.004 0.299316 20.7507 0.779979ZM9.89934 5.19924V12.1992L15.4993 8.69938L9.89934 5.19924Z" fill="white"/>
</svg>
