<svg id="trezor"
    xmlns="http://www.w3.org/2000/svg" viewBox="-112 0 722.3 722.3" width="722.3" height="722.3">
    <style>.st0{fill:#4A4A4A;stroke:#4A4A4A}</style>
    <path id="path7" class="st0" d="M249 0C149.9 0 69.7 80.2 69.7 179.3v67.2C34.9 252.8 0 261.2 0 272.1v350.7s0 9.7 10.9 14.3c39.5 16 194.9 71 230.6 83.6 4.6 1.7 5.9 1.7 7.1 1.7 1.7 0 2.5 0 7.1-1.7 35.7-12.6 191.5-67.6 231-83.6 10.1-4.2 10.5-13.9 10.5-13.9V272.1c0-10.9-34.4-19.7-69.3-25.6v-67.2C428.4 80.2 347.7 0 249 0zm0 85.7c58.4 0 93.7 35.3 93.7 93.7v58.4c-65.5-4.6-121.4-4.6-187.3 0v-58.4c0-58.5 35.3-93.7 93.6-93.7zm-.4 238.1c81.5 0 149.9 6.3 149.9 17.6v218.8c0 3.4-.4 3.8-3.4 5-2.9 1.3-139 50.4-139 50.4s-5.5 1.7-7.1 1.7c-1.7 0-7.1-2.1-7.1-2.1s-136.1-49.1-139-50.4-3.4-1.7-3.4-5V341c-.8-11.3 67.6-17.2 149.1-17.2z"/>
</svg>